<?xml version="1.0" encoding="utf-8"?>
<!-- Generator: Adobe Illustrator 17.0.0, SVG Export Plug-In . SVG Version: 6.00 Build 0)  -->
<!DOCTYPE svg PUBLIC "-//W3C//DTD SVG 1.1//EN" "http://www.w3.org/Graphics/SVG/1.1/DTD/svg11.dtd">
<svg version="1.1" id="Capa_1" xmlns="http://www.w3.org/2000/svg" xmlns:xlink="http://www.w3.org/1999/xlink" x="0px" y="0px"
	 width="528.286px" height="533.286px" viewBox="0 0 528.286 533.286" enable-background="new 0 0 528.286 533.286"
	 xml:space="preserve">
<g>
	<path d="M176.442,459.125c0,14.358,11.682,26.04,26.04,26.04s26.04-11.682,26.04-26.04s-11.682-26.04-26.04-26.04
		S176.442,444.767,176.442,459.125z"/>
	<path d="M249.623,497.246H36.04V36.04h332.884v78.221c0,9.936,8.084,18.02,18.021,18.02s18.021-8.084,18.021-18.02V34.06
		c0-18.781-15.279-34.06-34.061-34.06H34.061C15.279,0,0,15.279,0,34.06v465.166c0,18.781,15.279,34.06,34.061,34.06h215.562
		c9.936,0,18.02-8.083,18.02-18.02C267.643,505.33,259.559,497.246,249.623,497.246z"/>
	<path d="M406.005,485.165c14.358,0,26.04-11.682,26.04-26.04s-11.682-26.04-26.04-26.04s-26.04,11.682-26.04,26.04
		S391.646,485.165,406.005,485.165z"/>
	<path d="M494.226,144.361H317.783c-18.78,0-34.06,15.279-34.06,34.061v320.804c0,18.781,15.279,34.06,34.06,34.06h176.442
		c18.781,0,34.061-15.279,34.061-34.06V178.422C528.286,159.641,513.007,144.361,494.226,144.361z M492.246,180.402v316.844H319.764
		V180.402H492.246z"/>
</g>
</svg>
